<svg width="44" height="44" viewBox="0 0 44 44" fill="none" xmlns="http://www.w3.org/2000/svg">
<path d="M34.8333 12.8333V18.315C34.8333 18.315 31.185 18.3333 31.1667 18.315V12.8333H25.6667C25.6667 12.8333 25.685 9.18496 25.6667 9.16663H31.1667V3.66663H34.8333V9.16663H40.3333V12.8333H34.8333ZM29.3333 20.1666V14.6666H23.8333V9.16663H9.16667C7.15 9.16663 5.5 10.8166 5.5 12.8333V34.8333C5.5 36.85 7.15 38.5 9.16667 38.5H31.1667C33.1833 38.5 34.8333 36.85 34.8333 34.8333V20.1666H29.3333ZM9.16667 34.8333L14.6667 27.5L18.3333 33L23.8333 25.6666L31.1667 34.8333H9.16667Z" fill="#909090"/>
</svg>
